:SAMPLES-PER-SECOND 30
:FULLY-SPECIFIED
:DEGREES
778
root  -6.76975 38.4202 4.59726 28.2563 79.7406 31.1361
RightUpLeg  -21.5976 -1.89089 -9.89886
RightLeg  15.7041 9.68124 2.22275
RightFoot  4.797 -0.916237 6.66571
RightToes  -1.33073e-015 0 -3.6325e-017
Spine  18.6867 0.758582 23.1288
Spine1  8.28937 5.67978 -4.49246
HEad  -17.299 -51.1959 5.97613
LeftShoulder1  0.537387 1.95327 -28.5627
LeftArm  2.49904 12.5068 -37.7766
LeftForeArm  26.017 -33.7706 -6.00507
LeftHand  -0.0173103 4.90339 0.96285
RightShoulder  0.240769 -2.01427 8.89697
RightArm  -34.8108 41.8604 -4.48925
RightForeArm  -34.9006 -4.39707 -3.02021
RightHand  -0.980642 16.5383 -5.62037
LeftUpLeg  0.7651 2.67411 -11.9356
LeftLeg  22.6952 -0.774464 -0.00833961
LeftFoot  -17.2214 0.584087 9.39887
LeftToes  -1.63346e-009 7.54925e-011 9.86887e-012
779
root  -5.53082 38.2963 4.93791 22.2804 79.9731 25.1589
RightUpLeg  -21.9222 -1.81127 -8.95029
RightLeg  20.6905 9.55996 3.82885
RightFoot  1.68007 -0.618514 5.51761
RightToes  -1.33073e-015 0 -3.6325e-017
Spine  18.0413 0.557007 23.9939
Spine1  8.50324 5.33588 -4.03014
HEad  -16.4152 -48.6365 4.53459
LeftShoulder1  0.454559 2.22124 -29.3139
LeftArm  2.52628 14.1652 -37.6182
LeftForeArm  25.7456 -33.4353 -5.9372
LeftHand  -0.0174955 5.18557 1.2347
RightShoulder  0.215519 -2.19094 9.24077
RightArm  -36.0765 42.0496 -3.78373
RightForeArm  -31.0412 -4.38501 -3.99451
RightHand  -0.740724 16.1463 -4.43994
LeftUpLeg  -0.0506314 3.4681 -10.3439
LeftLeg  28.6501 -0.915705 -0.225739
LeftFoot  -17.6681 0.425251 5.77435
LeftToes  -1.63346e-009 7.54925e-011 9.86887e-012
780
root  -4.4078 38.2076 5.32314 18.1002 80.9955 20.9665
RightUpLeg  -21.4361 -2.06259 -7.69471
RightLeg  24.1864 9.07005 4.21231
RightFoot  -1.73543 -0.428097 4.95486
RightToes  -1.33073e-015 0 -3.6325e-017
Spine  17.5832 0.40116 24.4756
Spine1  8.30508 4.8969 -3.06228
HEad  -14.7933 -46.2837 3.39177
LeftShoulder1  0.515909 2.03714 -29.0554
LeftArm  4.59737 14.9214 -38.2514
LeftForeArm  24.9969 -31.8743 -5.59243
LeftHand  -0.0133545 4.78605 0.516847
RightShoulder  0.175399 -2.49819 10.4989
RightArm  -34.3311 40.7605 -3.08184
RightForeArm  -29.9443 -4.36145 -3.73931
RightHand  -0.780646 16.26 -4.62804
LeftUpLeg  -2.62089 5.01714 -8.1734
LeftLeg  37.0901 -2.01542 -1.26619
LeftFoot  -15.0756 0.146031 0.880845
LeftToes  -1.63346e-009 7.54925e-011 9.86887e-012
781
root  -3.36077 38.2637 5.71012 13.5604 81.6995 16.4573
RightUpLeg  -19.9252 -1.89735 -6.53982
RightLeg  25.426 8.4865 4.15407
RightFoot  -4.27561 -0.315453 4.65126
RightToes  -1.33073e-015 0 -3.6325e-017
Spine  17.6182 0.450806 24.7303
Spine1  7.6419 4.83847 -2.33896
HEad  -13.7832 -43.8214 2.69951
LeftShoulder1  0.546097 1.96452 -29.3763
LeftArm  8.13078 14.9347 -38.3539
LeftForeArm  24.7062 -30.4938 -5.27625
LeftHand  -0.0135618 5.11257 1.03473
RightShoulder  0.113232 -2.88033 11.5654
RightArm  -32.5202 38.3383 -0.612163
RightForeArm  -27.95 -2.34765 -3.83642
RightHand  -0.923144 17.2666 -5.17087
LeftUpLeg  -6.20998 7.14722 -6.15002
LeftLeg  45.5061 -1.82772 -1.54464
LeftFoot  -7.43681 0.125826 -2.95414
LeftToes  -1.63346e-009 7.54925e-011 9.86887e-012
782
root  -2.31415 38.3954 6.06546 10.6267 81.9408 13.5306
RightUpLeg  -18.014 -1.78231 -5.83256
RightLeg  25.6863 8.29198 4.09952
RightFoot  -6.54206 -0.241731 4.69137
RightToes  -1.33073e-015 0 -3.6325e-017
Spine  17.5978 0.440109 24.513
Spine1  7.00275 4.75507 -2.15734
HEad  -13.0674 -40.6918 2.14395
LeftShoulder1  0.503039 2.10834 -29.9274
LeftArm  9.71984 15.458 -38.3893
LeftForeArm  26.5553 -29.8894 -5.03239
LeftHand  -0.0203023 5.31558 -0.406899
RightShoulder  0.0761858 -3.09995 12.6945
RightArm  -30.4555 35.2732 3.48983
RightForeArm  -24.9154 4.358 -3.36482
RightHand  -1.11107 17.2546 -6.13508
LeftUpLeg  -10.1007 8.86251 -5.05535
LeftLeg  52.3102 -0.297822 0.082383
LeftFoot  1.31433 0.21961 -2.12603
LeftToes  -1.63346e-009 7.54925e-011 9.86887e-012
